<svg xmlns="http://www.w3.org/2000/svg" xmlns:xlink="http://www.w3.org/1999/xlink" width="335.941" height="80.591" viewBox="0 0 335.941 80.591">
  <defs>
    <clipPath id="clip-path">
      <path id="Clip_2" data-name="Clip 2" d="M31.176,80.591a8.681,8.681,0,0,1-4.332-1.16l-22.513-13A8.684,8.684,0,0,1,0,58.931V1.243A1.461,1.461,0,0,1,.788.227,25.619,25.619,0,0,1,4.094,0c3.955,0,7.026,1.075,9.127,3.2,2.117,2.137,3.19,5.277,3.19,9.333v5.933l10.433-6.027a8.667,8.667,0,0,1,8.663,0l22.513,13a8.689,8.689,0,0,1,4.332,7.5v26a8.686,8.686,0,0,1-4.332,7.5l-22.513,13A8.681,8.681,0,0,1,31.176,80.591Zm1.48-54.727A20.195,20.195,0,1,0,46.417,60.839a.856.856,0,0,0,.223-.556.538.538,0,0,0-.151-.4L33.143,46.547a.643.643,0,0,1,0-1l.9-.939c3.25-3.374,11.885-12.337,12.169-12.621a.609.609,0,0,0,.2-.454.654.654,0,0,0-.2-.443A20.148,20.148,0,0,0,32.656,25.864Z" transform="translate(0 0.046)" fill="none"/>
    </clipPath>
    <linearGradient id="linear-gradient" x1="0.066" y1="0.914" x2="1" y2="0.095" gradientUnits="objectBoundingBox">
      <stop offset="0" stop-color="#f6d124"/>
      <stop offset="1" stop-color="#f9c241"/>
    </linearGradient>
    <clipPath id="clip-path-2">
      <path id="Clip_4" data-name="Clip 4" d="M0,0H38.119V41.608H0Z" transform="translate(0 0.074)" fill="none"/>
    </clipPath>
    <clipPath id="clip-path-3">
      <path id="Clip_7" data-name="Clip 7" d="M0,0H26.673V31.682H0Z" transform="translate(0.181 0.037)" fill="none"/>
    </clipPath>
    <clipPath id="clip-path-4">
      <path id="Clip_12" data-name="Clip 12" d="M0,0H26.608V31.512H0Z" transform="translate(0.097 0.116)" fill="none"/>
    </clipPath>
  </defs>
  <g id="组_2" data-name="组 2" transform="translate(-71.351 -21.636)">
    <g id="Group_6" data-name="Group 6" transform="translate(71.351 21.495)">
      <g id="logo" transform="translate(0 0.095)">
        <g id="编组">
          <rect id="矩形" width="42.535" height="44.5" transform="translate(7.334 23.373)" fill="#fff"/>
          <g id="Group_3" data-name="Group 3">
            <path id="Clip_2-2" data-name="Clip 2" d="M31.176,80.591a8.681,8.681,0,0,1-4.332-1.16l-22.513-13A8.684,8.684,0,0,1,0,58.931V1.243A1.461,1.461,0,0,1,.788.227,25.619,25.619,0,0,1,4.094,0c3.955,0,7.026,1.075,9.127,3.2,2.117,2.137,3.19,5.277,3.19,9.333v5.933l10.433-6.027a8.667,8.667,0,0,1,8.663,0l22.513,13a8.689,8.689,0,0,1,4.332,7.5v26a8.686,8.686,0,0,1-4.332,7.5l-22.513,13A8.681,8.681,0,0,1,31.176,80.591Zm1.48-54.727A20.195,20.195,0,1,0,46.417,60.839a.856.856,0,0,0,.223-.556.538.538,0,0,0-.151-.4L33.143,46.547a.643.643,0,0,1,0-1l.9-.939c3.25-3.374,11.885-12.337,12.169-12.621a.609.609,0,0,0,.2-.454.654.654,0,0,0-.2-.443A20.148,20.148,0,0,0,32.656,25.864Z" transform="translate(0 0.046)" fill="none"/>
            <g id="Group_3-2" data-name="Group 3" clip-path="url(#clip-path)">
              <path id="Fill_1" data-name="Fill 1" d="M31.176,80.591a8.681,8.681,0,0,1-4.332-1.16l-22.513-13A8.684,8.684,0,0,1,0,58.931V1.243A1.461,1.461,0,0,1,.788.227,25.619,25.619,0,0,1,4.094,0c3.955,0,7.026,1.075,9.127,3.2,2.117,2.137,3.19,5.277,3.19,9.333v5.933l10.433-6.027a8.667,8.667,0,0,1,8.663,0l22.513,13a8.689,8.689,0,0,1,4.332,7.5v26a8.686,8.686,0,0,1-4.332,7.5l-22.513,13A8.681,8.681,0,0,1,31.176,80.591Zm1.48-54.727A20.195,20.195,0,1,0,46.417,60.839a.856.856,0,0,0,.223-.556.538.538,0,0,0-.151-.4L33.143,46.547a.643.643,0,0,1,0-1l.9-.939c3.25-3.374,11.885-12.337,12.169-12.621a.609.609,0,0,0,.2-.454.654.654,0,0,0-.2-.443A20.148,20.148,0,0,0,32.656,25.864Z" transform="translate(0 0.046)" fill="url(#linear-gradient)"/>
            </g>
          </g>
        </g>
        <path id="Fill_4" data-name="Fill 4" d="M6.755,3.377A3.377,3.377,0,1,1,3.377,0,3.377,3.377,0,0,1,6.755,3.377" transform="translate(22.007 36.78)" fill="#090909"/>
      </g>
    </g>
    <g id="Group_18" data-name="Group 18" transform="translate(161.5 44.5)">
      <path id="Fill_1-2" data-name="Fill 1" d="M4.344,8.687A4.344,4.344,0,1,1,8.687,4.344,4.349,4.349,0,0,1,4.344,8.687" transform="translate(83.583 31.769)" fill="#fff"/>
      <g id="Group_5" data-name="Group 5" transform="translate(0 0.123)">
        <path id="Clip_4-2" data-name="Clip 4" d="M0,0H38.119V41.608H0Z" transform="translate(0 0.074)" fill="none"/>
        <g id="Group_5-2" data-name="Group 5" clip-path="url(#clip-path-2)">
          <path id="Fill_3" data-name="Fill 3" d="M22.7,41.608H7.177a1.021,1.021,0,0,1-1.019-1.021V7.966H0V0H20.721c5.142,0,9.126.938,11.84,2.787,2.775,1.89,4.182,4.893,4.182,8.923a10.4,10.4,0,0,1-1.364,5.366A8.009,8.009,0,0,1,32.2,20.05a8.072,8.072,0,0,1,4.2,3.03,10.145,10.145,0,0,1,1.712,5.85,15.05,15.05,0,0,1-.984,5.606A9.544,9.544,0,0,1,34.2,38.567C31.633,40.585,27.765,41.608,22.7,41.608Zm-7-17.856v9.909h7.488a5.575,5.575,0,0,0,3.956-1.234,5.156,5.156,0,0,0,1.183-3.607,5.656,5.656,0,0,0-1.116-3.781A5.029,5.029,0,0,0,23.5,23.752Zm0-15.694v9.114h5.7c2.192,0,3.19-.277,4.27-1.184a4.114,4.114,0,0,0,1.228-3.23,4.685,4.685,0,0,0-1.24-3.569c-.95-.814-2.2-1.131-4.45-1.131Z" transform="translate(0 0.074)" fill="#fff"/>
        </g>
      </g>
      <g id="Group_8" data-name="Group 8" transform="translate(137.022 10.45)">
        <path id="Clip_7-2" data-name="Clip 7" d="M0,0H26.673V31.682H0Z" transform="translate(0.181 0.037)" fill="none"/>
        <g id="Group_8-2" data-name="Group 8" clip-path="url(#clip-path-3)">
          <path id="Fill_6" data-name="Fill 6" d="M12.359,31.682h0A26.593,26.593,0,0,1,9,31.484a10.941,10.941,0,0,1-6.707-2.927A9.177,9.177,0,0,1,0,21.965C0,19,.884,16.725,2.627,15.2c1.6-1.4,3.966-2.191,7.028-2.362.3-.017.624-.025.957-.025a36.55,36.55,0,0,1,6.8.8v-1.69a4.426,4.426,0,0,0-4.285-4.736,18.3,18.3,0,0,0-2.012-.1,39.657,39.657,0,0,0-8.43,1.108A.347.347,0,0,1,2.6,8.2a.536.536,0,0,1-.542-.466c-.007-.252-.072-1.93-.129-3.41C1.9,3.564,1.875,2.842,1.857,2.37a.85.85,0,0,1,.472-.713A37.776,37.776,0,0,1,13.472,0a22.51,22.51,0,0,1,4.772.442,10.807,10.807,0,0,1,5.482,2.809,9.906,9.906,0,0,1,2.582,5.136,42.013,42.013,0,0,1,.365,6.947V28.743a.961.961,0,0,1-.743,1A58.651,58.651,0,0,1,12.359,31.682Zm.146-13.1c-.319,0-.623.012-.9.034a2.8,2.8,0,0,0-2.734,2.975,2.791,2.791,0,0,0,2.59,3.008,8.379,8.379,0,0,0,1.315.09,16.757,16.757,0,0,0,4.522-.636V19.167A24.9,24.9,0,0,0,12.505,18.584Z" transform="translate(0.181 0.037)" fill="#fff"/>
        </g>
      </g>
      <path id="Fill_9" data-name="Fill 9" d="M35.957.4a26.9,26.9,0,0,0-13.05,1.691,10.215,10.215,0,0,0-4.518-1.8C11.3-.787,2.88,1.471.6,2.146a.876.876,0,0,0-.6.909V29.6a.744.744,0,0,0,.723.838H8.79a.859.859,0,0,0,.852-.882V8.358a18,18,0,0,1,4.6-.418,3.493,3.493,0,0,1,3.421,2.426,18.212,18.212,0,0,1,.328,4.16V29.6a.782.782,0,0,0,.77.838h7.579a.734.734,0,0,0,.8-.794V15.614a56.328,56.328,0,0,0-.332-7.036,12.014,12.014,0,0,1,5-.489,3.475,3.475,0,0,1,3.12,2.649A16.982,16.982,0,0,1,35.26,14.9V29.687a.76.76,0,0,0,.835.787H44.25c.452,0,.726-.305.726-.831v-14.4c0-3.21.1-6.247-.674-8.482C43.145,3.4,40.155,1.029,35.957.4" transform="translate(169.29 10.613)" fill="#fff"/>
      <g id="Group_13" data-name="Group 13" transform="translate(219.087 10.45)">
        <path id="Clip_12-2" data-name="Clip 12" d="M0,0H26.608V31.512H0Z" transform="translate(0.097 0.116)" fill="none"/>
        <g id="Group_13-2" data-name="Group 13" clip-path="url(#clip-path-4)">
          <path id="Fill_11" data-name="Fill 11" d="M14.584,31.512h0c-.4,0-.81-.009-1.206-.028-4.287-.2-7.633-1.5-9.944-3.853C1.155,25.309,0,22.082,0,18.041V13.2A13.344,13.344,0,0,1,3.417,3.676C5.743,1.271,9.17,0,13.327,0c5.632,0,9.493,2.14,11.8,6.543,1.913,3.645,1.489,10.093,1.314,11.983a.485.485,0,0,1-.507.437H9.628a6.473,6.473,0,0,0,.325,2.47,4.377,4.377,0,0,0,3.718,2.986,15.44,15.44,0,0,0,2.3.156,39.953,39.953,0,0,0,9.017-1.3.5.5,0,0,1,.124-.016.417.417,0,0,1,.4.456c0,.121,0,1.358.007,2.45,0,1.061.007,2.2.008,2.837a.613.613,0,0,1-.407.611A31.871,31.871,0,0,1,14.584,31.512ZM13.595,7.7A4.083,4.083,0,0,0,10.5,9a5.627,5.627,0,0,0-.951,3.922h8.133a8.162,8.162,0,0,0-.489-3.3A3.718,3.718,0,0,0,13.655,7.7Z" transform="translate(0.097 0.116)" fill="#fff"/>
        </g>
      </g>
      <path id="Fill_14" data-name="Fill 14" d="M17.242,41.864C12,41.858,7.659,40.3,4.679,37.368,1.75,34.483.222,30.713.062,25.144c-.083-2.882-.083-5.29,0-8.311C.2,11.641,1.823,7.57,4.578,4.732c2.839-2.926,6.659-4.311,12-4.683A41.849,41.849,0,0,1,30.756,2.055a.488.488,0,0,1,.3.558L31.05,9.449a.489.489,0,0,1-.479.389.607.607,0,0,1-.154-.025c-3.434-.894-8.794-1.966-12.842-1.522-2.4.264-4.595,1.212-5.632,2.559-1.121,1.456-1.6,3.135-1.9,6.253a48.924,48.924,0,0,0,.038,8.082c.228,3.047.679,4.938,1.833,6.449,1.287,1.685,3.591,2.179,5.206,2.3.341.025.711.038,1.1.038a16.885,16.885,0,0,0,5.052-.709V22.753a.951.951,0,0,1,.95-.95l7.081-.1a.95.95,0,0,1,.95.95V37.94a.739.739,0,0,1-.4.749,32.427,32.427,0,0,1-14.578,3.175Z" transform="translate(98.682 0)" fill="#fff"/>
      <path id="Fill_16" data-name="Fill 16" d="M17.979,41.85c-.488,0-.96-.011-1.4-.034-5.347-.269-9.16-1.757-12-4.683C1.823,34.3.2,30.224.062,25.032.02,23.521,0,22.216,0,20.926s.02-2.6.062-4.108C.2,11.626,1.823,7.554,4.577,4.717,7.417,1.791,11.23.3,16.577.034c.442-.022.914-.034,1.4-.034A41.073,41.073,0,0,1,30.756,1.964a.488.488,0,0,1,.3.558L31.05,9.252a.49.49,0,0,1-.48.389.545.545,0,0,1-.154-.025c-3.058-.9-9.064-2-13.238-1.428a7.544,7.544,0,0,0-5.064,2.427c-1.212,1.471-1.8,3.46-1.994,6.586-.075,1.231-.108,2.414-.1,3.722s.029,2.493.1,3.725c.19,3.126.831,4.951,2.011,6.36a7.8,7.8,0,0,0,4.822,2.54c4.8.8,10.9-.641,13.916-1.616a.5.5,0,0,1,.154-.025.49.49,0,0,1,.479.389l.084,6.881a.488.488,0,0,1-.3.558,44.426,44.426,0,0,1-13.3,2.115" transform="translate(43.383 0.015)" fill="#fff"/>
    </g>
  </g>
</svg>
