<?xml version="1.0" encoding="utf-8"?>
<!-- Generator: Adobe Illustrator 23.0.2, SVG Export Plug-In . SVG Version: 6.00 Build 0)  -->
<svg version="1.1" id="Layer_1" xmlns="http://www.w3.org/2000/svg" xmlns:xlink="http://www.w3.org/1999/xlink" x="0px" y="0px"
	 viewBox="0 0 653 176" style="enable-background:new 0 0 653 176;" xml:space="preserve">
<style type="text/css">
	.st0{fill:url(#SVGID_1_);}
	.st1{fill:#FFFFFF;}
</style>
<g>
	<linearGradient id="SVGID_1_" gradientUnits="userSpaceOnUse" x1="85.0758" y1="158.9962" x2="85.0758" y2="-27.3604">
		<stop  offset="0" style="stop-color:#BC3430"/>
		<stop  offset="1" style="stop-color:#F04945"/>
	</linearGradient>
	<path class="st0" d="M111.3,75.2c-1.8,1.1-4.2,0.4-5.2-1.4c-1.1-1.8-0.4-4.2,1.4-5.2l31.8-18.4L85.1,18.8L30.8,50.2l58.3,33.8
		L89,134.9c0,2.1-1.7,3.8-3.8,3.8h0c-2.1,0-3.8-1.7-3.8-3.8l0.1-46.5L23.2,54.6l0,0v68.2l61.9,35.6l61.9-35.6V54.6l-0.1,0
		L111.3,75.2z"/>
	<path class="st1" d="M60.4,126.9l6.4,3.5c1.7,0.9,1.7,3.4,0,4.3l-6.4,3.5c-0.5,0.3-0.9,0.7-1.2,1.2l-3.5,6.4
		c-0.9,1.7-3.4,1.7-4.3,0l-3.5-6.4c-0.3-0.5-0.7-0.9-1.2-1.2l-6.4-3.5c-1.7-0.9-1.7-3.4,0-4.3l6.4-3.5c0.5-0.3,0.9-0.7,1.2-1.2
		l3.5-6.4c0.9-1.7,3.4-1.7,4.3,0l3.5,6.4C59.5,126.2,59.9,126.6,60.4,126.9z"/>
	<path class="st1" d="M132.7,88.8l4.1,2.2c1.1,0.6,1.1,2.1,0,2.7l-4.1,2.2c-0.3,0.2-0.6,0.4-0.8,0.8l-2.2,4.1
		c-0.6,1.1-2.1,1.1-2.7,0l-2.2-4.1c-0.2-0.3-0.4-0.6-0.8-0.8l-4.1-2.2c-1.1-0.6-1.1-2.1,0-2.7l4.1-2.2c0.3-0.2,0.6-0.4,0.8-0.8
		l2.2-4.1c0.6-1.1,2.1-1.1,2.7,0L132,88C132.1,88.3,132.4,88.6,132.7,88.8z"/>
	<path class="st1" d="M256.4,99.6c-3,6.5-9.5,11-17,11c-10.4,0-18.8-8.7-18.8-19.4s8.4-19.4,18.8-19.4c7.5,0,13.9,4.5,17,11l8-1.6
		c-4-9.8-13.6-16.7-24.8-16.7c-14.8,0-26.8,12-26.8,26.8s12,26.8,26.8,26.8c11.2,0,20.8-6.9,24.8-16.7L256.4,99.6z"/>
	<path class="st1" d="M310.1,117h8l-19.3-51.7h-8.2L271.3,117h8l4.7-13.5h21.4L310.1,117z M286.6,96.3l8.2-23.4l8.2,23.4H286.6z"/>
	<path class="st1" d="M356.4,77.1l6.6-3c-2.6-6-9-10.4-16.2-10.4s-16.3,4.5-16.3,14.2s9.6,13.5,17.7,15.8c8.1,2.3,8.8,7.5,8.6,10
		c-0.1,2.5-2.4,7.6-9.4,7.6s-11.1-6.4-11.8-10.3c-1.8,0.6-7.1,2.6-7.1,2.6c2.1,7.4,6.9,14.4,18.8,14.4c11.9,0,17.1-7.9,17.2-14.1
		s-1.5-12.5-15.5-17.2c-9.8-3.3-11.3-6-11.3-8.8C338,71.1,350.6,65.3,356.4,77.1z"/>
	<rect x="383" y="65.3" class="st1" width="7.5" height="51.7"/>
	<polygon class="st1" points="444.4,65.3 444.4,103.5 419.8,65.3 411,65.3 411,117 418.5,117 418.5,76.7 444.4,117 451.9,117 
		451.9,65.3 	"/>
	<polygon class="st1" points="505,74.7 505,65.5 472.1,65.5 472.1,117 505,117 505,107.7 482.5,107.7 482.5,95.5 502.6,95.5 
		502.6,86.3 482.5,86.3 482.5,74.7 	"/>
	<path class="st1" d="M544.2,64.1c-14.6,0-26.4,12.2-26.4,27.2s11.8,27.2,26.4,27.2s26.4-12.2,26.4-27.2S558.7,64.1,544.2,64.1z
		 M544.2,108.7c-9.1,0-16.5-7.8-16.5-17.3S535.1,74,544.2,74c9.1,0,16.5,7.8,16.5,17.3S553.3,108.7,544.2,108.7z"/>
	<path class="st1" d="M610.3,78.4c-1.5-4.1-4.9-5.5-8.1-5.5s-7.4,1.3-7.4,5.9c0,4.6,8.3,6.9,11.6,7.9c3.3,1,14.5,6,14.5,16.5
		s-10.9,15-18.3,15c-7.4,0-16.4-3.2-19.3-14.8c1.3-0.3,9.1-3.3,9.1-3.3c1.1,4.3,5.3,9.2,10,9.2s8.5-2.6,8.5-6s-1.6-5.6-6.3-7.8
		s-19.9-5-19.3-17.6c0.4-8.8,9.1-14.1,16.7-14.1c4.3,0,12.7,1.3,16.8,10.9C617.7,75.3,610.3,78.4,610.3,78.4z"/>
</g>
</svg>
