<svg xmlns="http://www.w3.org/2000/svg" viewBox="0 0 320.86 74.08"><defs><style>.cls-1{fill:#ffbc00;}.cls-2{fill:#fff;}</style></defs><title>dc + logo + circle2</title><g id="Layer_2" data-name="Layer 2"><path class="cls-1" d="M78.43,63l-.66,13.67c-.38,0-.77,0-1.16,0s-.76,0-1.14,0L74.79,63Z" transform="translate(-39.57 -62.96)"/><path class="cls-1" d="M78.44,137H74.78l.68-13.67c.38,0,.77,0,1.15,0s.79,0,1.17,0Z" transform="translate(-39.57 -62.96)"/><path class="cls-1" d="M113.64,98.17v3.66L100,101.16c0-.38,0-.77,0-1.16s0-.77,0-1.15Z" transform="translate(-39.57 -62.96)"/><path class="cls-1" d="M53.2,100c0,.38,0,.77,0,1.14l-13.66.66V98.13l13.66.7C53.21,99.21,53.2,99.61,53.2,100Z" transform="translate(-39.57 -62.96)"/><path class="cls-1" d="M113.38,66.69,94,84.3c-.52-.57-1.07-1.11-1.63-1.63l17.59-19.44a5.42,5.42,0,0,1,3.44,3.45Z" transform="translate(-39.57 -62.96)"/><path class="cls-1" d="M60.91,117.36l-17.6,19.41h0a5.44,5.44,0,0,1-3.45-3.45h0l19.43-17.58C59.79,116.3,60.34,116.84,60.91,117.36Z" transform="translate(-39.57 -62.96)"/><path class="cls-1" d="M60.93,82.62c-.57.52-1.12,1.06-1.64,1.63L39.85,66.68a0,0,0,0,1,0,0,5.34,5.34,0,0,1,3.45-3.43h0Z" transform="translate(-39.57 -62.96)"/><path class="cls-1" d="M113.38,133.28h0a5.33,5.33,0,0,1-3.43,3.46h0L92.35,117.32c.57-.52,1.11-1.07,1.63-1.64Z" transform="translate(-39.57 -62.96)"/><path class="cls-1" d="M68.78,78a19.8,19.8,0,0,0-2.13.87L59.16,63h4.27Z" transform="translate(-39.57 -62.96)"/><path class="cls-1" d="M55.48,89.92q-.49,1-.9,2.13l-15-5.36v-4.3Z" transform="translate(-39.57 -62.96)"/><path class="cls-1" d="M55.44,110l-15.87,7.49v-4.28l15-5.35A20,20,0,0,0,55.44,110Z" transform="translate(-39.57 -62.96)"/><path class="cls-1" d="M68.69,122l-5.38,15H59l7.54-15.91A22.58,22.58,0,0,0,68.69,122Z" transform="translate(-39.57 -62.96)"/><path class="cls-1" d="M94.05,137h-4.3l-5.32-15a21,21,0,0,0,2.14-.89Z" transform="translate(-39.57 -62.96)"/><path class="cls-1" d="M113.64,113.22v4.29L97.77,110a20.08,20.08,0,0,0,.89-2.14Z" transform="translate(-39.57 -62.96)"/><path class="cls-1" d="M113.64,82.43v4.31l-15,5.37A21.15,21.15,0,0,0,97.75,90Z" transform="translate(-39.57 -62.96)"/><path class="cls-1" d="M94.13,63,86.61,78.85a20.47,20.47,0,0,0-2.16-.9L89.8,63Z" transform="translate(-39.57 -62.96)"/><path class="cls-2" d="M92.09,86a2.56,2.56,0,0,0-1.75-1.13l-.33,0H63.28l-.3,0A2.54,2.54,0,0,0,61.17,86a2.42,2.42,0,0,0-.44,1.4v25.24a2.5,2.5,0,0,0,.44,1.43,2.52,2.52,0,0,0,1.77,1.1l.34,0H89.94a1.84,1.84,0,0,0,.41,0A2.49,2.49,0,0,0,92.09,114a2.58,2.58,0,0,0,.4-1.37V87.35A2.48,2.48,0,0,0,92.09,86Zm-6.62,2a3.27,3.27,0,0,1,2.3,5.59,3.3,3.3,0,0,1-2.3.94,3.27,3.27,0,0,1,0-6.53ZM68,88a3.27,3.27,0,0,1,0,6.53A3.27,3.27,0,1,1,68,88Zm.07,23.9a3.33,3.33,0,1,1,2.29-1A3.17,3.17,0,0,1,68.1,111.88Zm11.77-11.72a3.22,3.22,0,0,1-3.26,3.14A3.26,3.26,0,0,1,73.34,100a3.27,3.27,0,1,1,6.53,0ZM85.62,112a3.26,3.26,0,0,1-3.27-3.26,3.26,3.26,0,1,1,6.52,0A3.25,3.25,0,0,1,85.62,112Z" transform="translate(-39.57 -62.96)"/><path class="cls-2" d="M151.8,116a7.38,7.38,0,0,1-6.29-3.11c-1.53-2.07-2.29-5-2.29-8.62s.78-6.64,2.33-8.72a8.14,8.14,0,0,1,13,.2h.22a25.5,25.5,0,0,1-.47-4.53V83.9h6.22v31.65h-4.74l-1.23-3h-.25A7.1,7.1,0,0,1,151.8,116ZM154,111a4.24,4.24,0,0,0,3.49-1.38c.74-.91,1.14-2.49,1.21-4.7v-.67q0-3.66-1.13-5.25a4.23,4.23,0,0,0-3.69-1.6,3.69,3.69,0,0,0-3.23,1.76,9.5,9.5,0,0,0-1.14,5.12,8.85,8.85,0,0,0,1.17,5A3.77,3.77,0,0,0,154,111Z" transform="translate(-39.57 -62.96)"/><path class="cls-2" d="M168.28,86.93q0-3,3.38-3t3.38,3a3,3,0,0,1-.85,2.25,3.55,3.55,0,0,1-2.53.8C169.41,90,168.29,89,168.28,86.93Zm6.47,28.62h-6.2V92.81h6.2Z" transform="translate(-39.57 -62.96)"/><path class="cls-2" d="M188.08,116q-10.62,0-10.62-11.65c0-3.86,1-6.82,2.89-8.86s4.69-3.06,8.28-3.06a15.76,15.76,0,0,1,7.08,1.55l-1.83,4.8a26.46,26.46,0,0,0-2.73-1,8.89,8.89,0,0,0-2.52-.38q-4.84,0-4.84,6.88,0,6.68,4.84,6.67a11,11,0,0,0,3.32-.48A12,12,0,0,0,195,109v5.31a10.17,10.17,0,0,1-3,1.32A16.88,16.88,0,0,1,188.08,116Z" transform="translate(-39.57 -62.96)"/><path class="cls-2" d="M208.14,116q-5.49,0-8.58-3t-3.09-8.59c0-3.8.95-6.74,2.84-8.84a11.59,11.59,0,0,1,15.41-.37,10.39,10.39,0,0,1,2.69,7.59v3H202.75a6,6,0,0,0,1.57,4.13,5.55,5.55,0,0,0,4.11,1.48,16.91,16.91,0,0,0,3.88-.43,19.4,19.4,0,0,0,3.83-1.36v4.8a15,15,0,0,1-3.48,1.21A21.41,21.41,0,0,1,208.14,116Zm-.87-19.16A3.94,3.94,0,0,0,204.18,98a5.77,5.77,0,0,0-1.29,3.55h8.71A5.22,5.22,0,0,0,210.4,98,4.05,4.05,0,0,0,207.27,96.79Z" transform="translate(-39.57 -62.96)"/><path class="cls-1" d="M222.47,112.64a3.4,3.4,0,0,1,.91-2.58,3.69,3.69,0,0,1,2.66-.88,3.63,3.63,0,0,1,2.62.89,4,4,0,0,1,0,5.1,3.58,3.58,0,0,1-2.61.93,3.67,3.67,0,0,1-2.64-.91A3.35,3.35,0,0,1,222.47,112.64Z" transform="translate(-39.57 -62.96)"/><path class="cls-2" d="M244.24,116q-10.62,0-10.62-11.65c0-3.86,1-6.82,2.89-8.86s4.68-3.06,8.28-3.06a15.72,15.72,0,0,1,7.07,1.55L250,98.73a25.54,25.54,0,0,0-2.72-1,9,9,0,0,0-2.52-.38c-3.23,0-4.84,2.29-4.85,6.88s1.62,6.67,4.85,6.67a11,11,0,0,0,3.32-.48,12,12,0,0,0,3-1.49v5.31a10.28,10.28,0,0,1-3,1.32A16.88,16.88,0,0,1,244.24,116Z" transform="translate(-39.57 -62.96)"/><path class="cls-2" d="M275,115.55h-6.19V102.27q0-4.93-3.66-4.93a4.17,4.17,0,0,0-3.77,1.77q-1.15,1.77-1.16,5.74v10.7H254V83.9h6.21v6.44c0,.51,0,1.69-.14,3.54l-.15,1.83h.35c1.38-2.21,3.57-3.32,6.59-3.32q4,0,6.08,2.16a8.57,8.57,0,0,1,2.07,6.17Z" transform="translate(-39.57 -62.96)"/><path class="cls-2" d="M295.08,115.55l-.84-2.91h-.32a6.52,6.52,0,0,1-2.85,2.45,9.63,9.63,0,0,1-4.17.86c-2.67,0-4.69-.71-6-2.14a8.71,8.71,0,0,1-2-6.17V92.81H285v13.28a6.44,6.44,0,0,0,.87,3.69,3.12,3.12,0,0,0,2.79,1.23,4.18,4.18,0,0,0,3.76-1.74c.78-1.15,1.16-3.08,1.16-5.77V92.81h6.21v22.74Z" transform="translate(-39.57 -62.96)"/><path class="cls-2" d="M316.62,92.38a10.58,10.58,0,0,1,2.1.18l-.48,5.82a8,8,0,0,0-6.45,1.32,5.52,5.52,0,0,0-1.66,4.27v11.58h-6.22V92.81h4.7l.91,3.82h.31a8.59,8.59,0,0,1,2.85-3.08A7.08,7.08,0,0,1,316.62,92.38Z" transform="translate(-39.57 -62.96)"/><path class="cls-2" d="M329.67,116Q319,116,319.05,104.3c0-3.86,1-6.82,2.88-8.86s4.69-3.06,8.28-3.06a15.81,15.81,0,0,1,7.09,1.55l-1.84,4.8a25.54,25.54,0,0,0-2.72-1,8.67,8.67,0,0,0-2.53-.38c-3.22,0-4.84,2.29-4.84,6.88S327,111,330.21,111a10.93,10.93,0,0,0,3.32-.48,11.89,11.89,0,0,0,3.06-1.49v5.31a10.28,10.28,0,0,1-3,1.32A16.88,16.88,0,0,1,329.67,116Z" transform="translate(-39.57 -62.96)"/><path class="cls-2" d="M360.43,115.55h-6.21V102.27q0-4.93-3.66-4.93a4.15,4.15,0,0,0-3.76,1.77c-.78,1.18-1.14,3.09-1.14,5.74v10.7h-6.23V83.9h6.23v6.44c0,.51-.05,1.69-.14,3.54l-.15,1.83h.29q2.07-3.31,6.59-3.32,4,0,6.08,2.16a8.58,8.58,0,0,1,2.08,6.17Z" transform="translate(-39.57 -62.96)"/></g></svg>