<?xml version="1.0" encoding="UTF-8"?>
<svg width="192px" height="50px" viewBox="0 0 192 50" version="1.1" xmlns="http://www.w3.org/2000/svg" xmlns:xlink="http://www.w3.org/1999/xlink">
    <!-- Generator: sketchtool 49.3 (51167) - http://www.bohemiancoding.com/sketch -->
    <title>85D6629D-9343-4407-B512-C4EFC0780E5C</title>
    <desc>Created with sketchtool.</desc>
    <defs></defs>
    <g id="Symbols" stroke="none" stroke-width="1" fill="none" fill-rule="evenodd">
        <g id="Gamdom-logo">
            <g>
                <path d="M76.4027712,28.1799484 L71.641286,28.1799484 L71.641286,23.6381114 L81.6299188,23.6381114 C81.6366395,23.7734808 81.6498968,23.9174736 81.6498968,24.0614665 C81.6510936,27.3548866 81.6465824,30.6483966 81.6579064,33.9418168 C81.6589191,34.237797 81.5558989,34.432632 81.351976,34.6392343 C79.8657783,36.1443769 78.0900378,37.2153852 76.0669198,37.847678 C75.0891025,38.1532697 74.0457352,38.2881002 73.021057,38.416014 C70.1966094,38.7684056 67.5530687,38.1291063 65.0993649,36.7990366 C61.755121,34.9862363 59.6920471,32.2033933 58.8156848,28.5702471 C58.4618809,27.1036403 58.4624333,25.6116124 58.5680313,24.1367416 C58.6910295,22.4198765 59.1739079,20.7647227 60.0113268,19.2296677 C60.5443804,18.2527083 61.1920544,17.359378 61.9539804,16.5313519 C63.1010123,15.285091 64.4562021,14.3237615 65.9889844,13.6053245 C67.2227411,13.0271076 68.5110921,12.5818348 69.8921521,12.4639816 C70.6465288,12.3996654 71.4018262,12.2932203 72.156387,12.2951067 C73.9073622,12.2994184 75.584962,12.6792971 77.1950785,13.3538087 C78.8825292,14.0607478 80.3462631,15.0775006 81.6290902,16.3514283 C81.7022815,16.4241882 81.7713299,16.5010802 81.8606325,16.5955783 C81.3511474,17.0692365 80.8519735,17.5224141 80.3654125,17.9882574 C79.7302593,18.5962969 79.0977761,19.2074804 78.4797469,19.8318684 C78.2705763,20.0431417 78.1296255,20.0470941 77.919166,19.8330362 C76.7196573,18.6129149 75.2764538,17.8173164 73.5750093,17.4605233 C72.1547298,17.1626567 70.7812192,17.30117 69.4533725,17.8447137 C66.7753996,18.9410533 65.2540333,20.9808467 64.6404233,23.6800607 C64.2064311,25.5888862 64.3879823,27.4779497 65.379149,29.2056838 C66.4955235,31.1516978 68.1839869,32.3850236 70.4520885,32.8650595 C72.5280515,33.3044038 74.3872946,32.8018213 76.1465556,31.7642286 C76.2666998,31.6933551 76.3891456,31.5139704 76.3916314,31.3829127 C76.4115173,30.3373254 76.4027712,29.2911094 76.4027712,28.1799484 Z M118.126412,37.8097952 L112.970798,37.8097952 L112.970798,37.3109854 C112.970798,34.6015311 112.990961,31.8918972 112.951097,29.1830717 C112.944468,28.7279179 112.718358,28.2592001 112.520879,27.8284793 C112.32561,27.4025192 111.888028,27.2835882 111.439581,27.229153 C109.589637,27.0047649 108.674055,28.5782659 108.648553,29.9447155 C108.60114,32.4833187 108.582267,35.022371 108.550873,37.5611539 C108.549952,37.6335545 108.54185,37.7058653 108.535406,37.8029684 L103.433926,37.8029684 L103.433926,23.9063594 L104.503624,23.9063594 C105.332113,23.9063594 106.162443,23.9386971 106.988354,23.8933344 C107.433117,23.8689913 107.655545,24.0363391 107.806715,24.4031031 C107.923085,24.6854296 108.064404,24.9578752 108.177735,25.1988812 C108.74117,24.7445359 109.26962,24.2617153 109.855703,23.8588408 C110.77644,23.2259192 111.827817,22.9125125 112.954595,22.9266154 C113.709432,22.936137 114.475869,22.9602107 115.214687,23.0948615 C116.421377,23.3147582 117.226389,24.0893371 117.780157,25.1439071 C118.197025,24.7779515 118.597598,24.4225956 119.002222,24.0716412 C119.849492,23.3368556 120.898567,23.0405161 121.976274,22.9415267 C122.904193,22.8562808 123.847025,22.8679583 124.776601,23.1416614 C126.277437,23.5835208 127.056026,24.6381806 127.404122,26.0216973 C127.600312,26.8010371 127.679579,27.6248413 127.688326,28.4299614 C127.720548,31.3785354 127.701123,34.3275585 127.701123,37.2764918 L127.701123,37.7975788 L122.545509,37.7975788 L122.545509,37.3175428 C122.545509,34.7128269 122.550204,32.1082008 122.539801,29.5036645 C122.53842,29.1678011 122.502883,28.8199906 122.408057,28.498769 C122.029487,27.2168467 121.003428,26.9606598 119.776208,27.3838352 C118.748216,27.7383827 118.277766,28.6079987 118.24094,29.578221 C118.144088,32.1294898 118.156977,34.6845314 118.126688,37.2381357 C118.124571,37.4155442 118.126412,37.5930425 118.126412,37.8097952 Z M182.437442,37.7997513 L177.29619,37.7997513 L177.29619,37.3082175 C177.29619,34.659127 177.303279,32.0100365 177.290575,29.3610358 C177.287813,28.785334 177.153398,28.2361312 176.790296,27.7481007 C176.241131,27.0097221 174.869278,27.0860751 174.166457,27.5356597 C173.385658,28.0351881 173.014269,28.8096772 172.98711,29.6605193 C172.906646,32.182235 172.907659,34.7062862 172.877369,37.229529 C172.875344,37.4068476 172.877093,37.5841663 172.877093,37.7886127 L167.78703,37.7886127 L167.78703,23.8952375 C169.135407,23.8952375 170.418878,23.8901173 171.702166,23.9056574 C171.797453,23.9068252 171.925146,24.0391405 171.978912,24.1402857 C172.164422,24.4888148 172.323693,24.8505485 172.500549,25.2234207 C173.898733,23.7133376 175.558104,22.8589922 177.662055,22.8958213 C178.764436,22.9150443 179.86387,22.9288777 180.764261,23.6319543 C181.285162,24.0386913 181.708383,24.5645391 182.143019,25.0038833 C182.630961,24.6220284 183.173406,24.1460347 183.768603,23.7442381 C184.590739,23.1891966 185.54462,22.9305844 186.530354,22.9216915 C187.373113,22.9139664 188.245793,22.9380401 189.054672,23.1402408 C190.593622,23.5248804 191.40333,24.6515815 191.739549,26.1098344 C191.861259,26.6373888 191.92331,27.1890169 191.926164,27.7299556 C191.943104,30.917829 191.93445,34.1057922 191.93445,37.2936655 L191.93445,37.7953498 L186.778837,37.7953498 L186.778837,37.3207034 L186.778837,29.1489541 C186.778837,28.1496278 186.379277,27.5149096 185.601792,27.2783949 C184.691734,27.0016376 183.617985,27.3513345 183.100951,28.0962705 C182.667419,28.7211077 182.456499,29.4177167 182.454382,30.1670542 C182.447477,32.6215793 182.451712,35.0761043 182.451067,37.5306293 C182.451067,37.6042875 182.443794,37.6779458 182.437442,37.7997513 Z M140.672041,14.2712778 L145.815318,14.2712778 L145.815318,37.7845048 L145.200971,37.7845048 L142.624085,37.7845048 C141.893001,37.7845048 141.893001,37.7845048 141.248365,37.2320683 C140.289513,37.5321806 139.398513,37.8948125 138.470226,38.0839883 C136.5493,38.4754547 134.679377,38.2470245 133.067696,37.1026274 C131.835596,36.2278015 131.074591,34.9667191 130.749051,33.5079272 C130.25402,31.2898271 130.234226,29.0629239 131.127252,26.9368066 C132.058576,24.7196048 133.71629,23.2606333 136.192826,22.7775432 C137.66816,22.4897373 139.099395,22.5555805 140.493344,23.1337076 C140.530538,23.149068 140.583015,23.1292163 140.672041,23.1224792 L140.672041,14.2712778 Z M99.5963105,37.8124172 C98.2634003,37.8124172 96.9755096,37.8187051 95.6878952,37.8025362 C95.5605699,37.8009193 95.3943935,37.6894439 95.316691,37.580843 C95.1223428,37.3092059 94.968503,37.0099919 94.8383237,36.7892867 C94.0685722,37.2070725 93.3814026,37.7337287 92.6016161,37.9741059 C90.3826769,38.6579595 88.3671082,38.1893316 86.6705431,36.6181661 C85.138037,35.1988084 84.3949843,33.4364908 84.2278871,31.3744203 C84.0833458,29.5897359 84.3768476,27.9081729 85.1820439,26.3350312 C86.1471563,24.4491116 87.6737703,23.143924 89.7826924,22.5456757 C90.9988648,22.2007397 92.229123,22.2274183 93.4769656,22.3467985 C94.6419501,22.4582739 95.7680834,22.7131133 96.8180793,23.1874902 C97.7127624,23.591712 98.5487082,24.1229494 99.3942289,24.6243642 C99.5176874,24.6975733 99.614171,24.9175598 99.6145393,25.0699065 C99.6259553,29.245249 99.6233775,33.4205915 99.6220886,37.5960237 C99.6220886,37.6527945 99.6089233,37.709655 99.5963105,37.8124172 Z M164.788643,30.3557434 C164.84784,31.5935606 164.599082,32.7800866 164.065384,33.8817259 C163.238184,35.5892489 161.909969,36.8361387 160.126864,37.598052 C158.809052,38.161178 157.410408,38.3340951 155.999151,38.2175894 C153.716779,38.0289525 151.775506,37.1531384 150.317849,35.3494106 C149.384775,34.1945936 148.882471,32.9156356 148.710494,31.4563048 C148.513568,29.7836347 148.699354,28.1848025 149.468461,26.6887324 C150.392237,24.8917416 151.835809,23.5885303 153.820812,23.0069898 C156.500166,22.2219909 159.121427,22.3393949 161.499638,23.9511622 C163.265988,25.1483776 164.350876,26.7968842 164.653676,28.8968618 C164.723369,29.3797722 164.745004,29.8692399 164.788643,30.3557434 Z M140.682629,30.3058612 C140.682629,29.2881204 140.670476,28.2701999 140.690638,27.2529082 C140.69607,26.980283 140.588631,26.8467101 140.35626,26.7468224 C138.891421,26.1167752 137.503457,26.5380642 136.555468,27.7946553 C135.649645,28.9951943 135.502066,30.3889513 135.839666,31.803099 C136.049666,32.682596 136.477305,33.4949023 137.301375,34.0136537 C138.343729,34.6699304 139.347141,34.4476084 140.332968,33.8624747 C140.589644,33.710128 140.699292,33.532989 140.691559,33.2239838 C140.667346,32.2517853 140.682629,31.2785987 140.682629,30.3058612 Z M94.4684085,30.0427338 C94.4684085,29.0106206 94.4598465,27.9785075 94.4746689,26.9465739 C94.4781673,26.7047594 94.400649,26.5920264 94.176656,26.4832458 C92.7115411,25.7721747 91.2538835,26.1584311 90.3847023,27.4284064 C89.1963334,29.1644944 89.0246331,31.1100592 90.0781274,32.9634614 C90.9160987,34.4375239 92.3055366,34.9888825 93.9304754,33.8569714 C94.2774666,33.6151569 94.5057867,33.3477417 94.482034,32.8690532 C94.4355414,31.9289229 94.4684085,30.9850199 94.4684085,30.0427338 Z M159.506901,30.4383843 C159.486831,29.3335112 159.282908,28.2899002 158.586716,27.367376 C157.614146,26.0787167 155.789059,26.0663206 154.812071,27.3446498 C154.308109,28.0038009 154.065519,28.7490064 153.955686,29.5746969 C153.796875,30.7692175 153.917664,31.8970863 154.507153,32.9521054 C154.998777,33.8320515 155.710804,34.4158377 156.818893,34.3699361 C157.850568,34.3270886 158.453775,33.7034191 158.919069,32.9019819 C159.361255,32.1402482 159.517488,31.3080003 159.506901,30.4383843 Z" id="GAMDOM" fill="#607D8B"></path>
                <g id="Gamdom-symbol">
                    <path d="M21.9336538,20.8846243 C19.6686566,20.8846243 17.8326319,22.7265318 17.8326319,24.9984971 L17.8326319,32.3346243 L25.7382267,32.3346243 L25.7382267,24.7013873 C25.7382267,22.5932948 24.0347253,20.8846243 21.9336538,20.8846243" id="Fill-1" fill="#607D8B"></path>
                    <path d="M21.7401697,0 C9.73355295,0 0,9.76445087 0,21.8095376 C0,30.2135838 4.73886262,37.5060694 11.6810702,41.1479769 L11.6810702,23.6604046 L7.0367025,18.8523121 L7.0367025,10.2768786 L12.17544,10.2768786 L12.17544,12.7552023 L17.807971,12.7552023 L17.807971,10.2768786 L25.692823,10.2768786 L25.692823,12.7552023 L31.0992001,12.7552023 L31.0992001,10.2768786 L36.5340984,10.2768786 L36.5340984,18.8523121 L31.7413622,23.6604046 L31.7413622,41.1783237 C38.7152601,37.5468208 43.4800512,30.2369942 43.4800512,21.8095376 C43.4800512,9.76445087 33.7467864,0 21.7401697,0" id="Fill-6" fill="#607D8B"></path>
                    <polygon id="Fill-10" fill="#0EE07B" points="17.8820977 30.4017052 17.8820977 32.3346532 0.391318445 49.832052 8.37066539 49.7580636 25.7381403 32.3346532 25.7381403 30.4017052"></polygon>
                    <path d="M17.8326607,30.9302312 L25.6763152,30.9302312 L25.6763152,29.7571098 L25.7379674,29.6958382 L25.7379674,24.7013295 C25.7379674,23.6946821 25.3490401,22.7796532 24.7143685,22.0975723 L17.8326607,29.0013295 L17.8326607,30.9302312 Z" id="Fill-11" fill="#0EE07B"></path>
                    <polyline id="Fill-13" fill="#0EE07B" points="47.1941049 8.31913295 49.9364743 11.070289 49.9364743 1.10699422 40.0050006 1.10699422 42.8214101 3.93242775 36.4971648 10.2769364 36.5340408 10.2769364 36.5340408 18.8523699"></polyline>
                    <polygon id="Fill-16" fill="#0A7843" points="17.8203591 32.3346821 25.7380538 32.3346821 25.7380538 29.0138728 17.8203591 29.0138728"></polygon>
                </g>
            </g>
        </g>
    </g>
</svg>