<svg xmlns="http://www.w3.org/2000/svg" xmlns:xlink="http://www.w3.org/1999/xlink" xmlns:sketch="http://www.bohemiancoding.com/sketch/ns" width="90px" height="72px" viewBox="0 0 90 72" version="1.1">
    <!-- Generator: Sketch 3.0.1 (7597) - http://www.bohemiancoding.com/sketch -->
    <title>logo bot</title>
    <description>Created with Sketch.</description>
    <defs/>
    <g id="Page-1" stroke="none" stroke-width="1" fill="none" fill-rule="evenodd" sketch:type="MSPage">
        <path d="M24,48 L24,54 L30,54 L30,48 L24,48 Z M30,54 L30,60 L36,60 L36,54 L30,54 Z M30,36 L30,42 L36,42 L36,36 L30,36 Z M36,42 L36,48 L42,48 L42,42 L36,42 Z M36,48 L36,54 L42,54 L42,48 L36,48 Z M42,54 L42,60 L48,60 L48,54 L42,54 Z M42,66 L42,72 L48,72 L48,66 L42,66 Z M36,30 L36,36 L42,36 L42,30 L36,30 Z M42,36 L42,42 L54,42 L54,36 L42,36 Z M48,48 L48,66 L54,66 L54,48 L48,48 Z M54,60 L54,72 L60,72 L60,60 L54,60 Z M54,42 L54,48 L60,48 L60,42 L54,42 Z M54,30 L54,36 L60,36 L60,30 L54,30 Z M48,24 L48,30 L54,30 L54,24 L48,24 Z M54,24 L54,30 L60,30 L60,24 L54,24 Z M54,48 L54,54 L60,54 L60,48 L54,48 Z M60,24 L60,72 L77.9922932,72 C84.6239666,72 90,66.6335089 90,59.9959353 L90,35.7114192 C90,29.243381 84.7572441,24 78.2723243,24 L60,24 Z M66,36 L66,60 L78,60 L78,36 L66,36 Z M78,42 L78,54 L90,54 L90,42 L78,42 Z" id="Rectangle-56" fill="#0061EE" sketch:type="MSShapeGroup"/>
        <path d="M0,24 L0,30 L6,30 L6,24 L0,24 Z M6,30 L6,36 L12,36 L12,30 L6,30 Z M6,12 L6,18 L12,18 L12,12 L6,12 Z M12,18 L12,24 L18,24 L18,18 L12,18 Z M12,24 L12,30 L18,30 L18,24 L12,24 Z M18,30 L18,36 L24,36 L24,30 L18,30 Z M18,42 L18,48 L24,48 L24,42 L18,42 Z M12,6 L12,12 L24,12 L24,6 L12,6 Z M18,12 L18,18 L30,18 L30,12 L18,12 Z M24,24 L24,42 L30,42 L30,24 L24,24 Z M30,36 L30,48 L36,48 L36,36 L30,36 Z M30,18 L30,24 L36,24 L36,18 L30,18 Z M30,6 L30,12 L36,12 L36,6 L30,6 Z M24,0 L24,6 L30,6 L30,0 L24,0 Z M30,0 L30,6 L36,6 L36,0 L30,0 Z M30,24 L30,30 L36,30 L36,24 L30,24 Z M36,0 L36,48 L53.9922932,48 C60.6239666,48 66,42.6335089 66,35.9959353 L66,11.7114192 C66,5.24338099 60.7572441,0 54.2723243,0 L36,0 Z M42,12 L42,18 L66,18 L66,12 L42,12 Z M42,18 L42,36 L48,36 L48,18 L42,18 Z M48,30 L48,36 L54,36 L54,30 L48,30 Z" id="Rectangle-53" fill="#FF31A2" sketch:type="MSShapeGroup"/>
    </g>
</svg>
