<svg width="113" height="20" xmlns="http://www.w3.org/2000/svg"><g fill="none" fill-rule="evenodd"><path d="M90.071 18.571V1.43c0-.395.32-.715.715-.715h5c.394 0 .714.32.714.715v17.14c0 .395-.32.715-.714.715h-5a.714.714 0 01-.715-.715zM7.5.714c5.257 0 8.042 1.907 8.214 6.429-.172 2.164-1.067 4.095-2.5 5l3.313 6.626a.357.357 0 01-.32.517h-6.059a.714.714 0 01-.673-.477L7.5 13.214H6.071v6.072H.714A.714.714 0 010 18.57V1.43C0 1.034.32.714.714.714H7.5zm0 4.643H6.071V8.93H7.5c1.053 0 1.429-.203 1.429-1.786 0-1.482-.326-1.786-1.429-1.786zm74-4.643c4.688 0 6.908 2.03 6.786 5 .122 1.81-.79 3.048-2.143 3.572v.357c1.87.53 2.857 1.991 2.857 3.928 0 3.56-2.27 5.715-7.5 5.715H74a.714.714 0 01-.714-.715V1.43c0-.395.32-.715.714-.715h7.5zm.357 11.429h-2.5v2.5h2.5c.876 0 1.072-.225 1.072-1.072 0-1.103-.196-1.428-1.072-1.428zM81.5 5.714h-2.143v2.143H81.5c.878 0 1.071-.253 1.071-1.071S82.33 5.714 81.5 5.714zM65.879 14.11h5.604a.714.714 0 01.714.732l-.089 3.746a.714.714 0 01-.714.698H60.43a.714.714 0 01-.715-.715V1.43c0-.395.32-.715.715-.715h4.735c.395 0 .715.32.715.715v12.68zm-13.572 0h5.604a.714.714 0 01.715.732l-.089 3.746a.714.714 0 01-.714.698H46.857a.714.714 0 01-.714-.715V1.43c0-.395.32-.715.714-.715h4.736c.394 0 .714.32.714.715v12.68zm59.176-8.196h-3.49v12.657c0 .395-.32.715-.715.715h-4.746a.714.714 0 01-.714-.715V5.914h-3.515a.714.714 0 01-.714-.73l.088-3.772a.714.714 0 01.714-.698h13.004c.388 0 .705.31.714.698l.088 3.771a.714.714 0 01-.714.731z" fill="#E3E6EC" fill-rule="nonzero"/><path d="M35.071 0c5.523 0 10 4.477 10 10s-4.477 10-10 10c-.242 0-.483-.009-.72-.026l-18.208-.688 17.049-1.287-4.197-.056a10.041 10.041 0 01-2.918-3.566l-6.72-.448 6.346-.423A9.978 9.978 0 0125.071 10c0-1.233.224-2.414.632-3.505l-6.346-.424 6.72-.448a10.041 10.041 0 012.918-3.566L33.192 2 16.142.714 34.303.03c.254-.02.51-.029.77-.029zm0 6.25a3.75 3.75 0 100 7.5 3.75 3.75 0 000-7.5z" fill="#FFB019"/></g></svg>