<svg xmlns:dc="http://purl.org/dc/elements/1.1/" xmlns:cc="http://creativecommons.org/ns#" xmlns:rdf="http://www.w3.org/1999/02/22-rdf-syntax-ns#" xmlns:svg="http://www.w3.org/2000/svg" xmlns="http://www.w3.org/2000/svg" xmlns:sodipodi="http://sodipodi.sourceforge.net/DTD/sodipodi-0.dtd" xmlns:inkscape="http://www.inkscape.org/namespaces/inkscape" version="1.1" id="Layer_1" inkscape:version="0.92.0 r15299" sodipodi:docname="thunderpick-light.svg" x="0px" y="0px" width="515.71899" height="80.500999" viewBox="0 0 515.719 80.500996" enable-background="new 0 0 564.503 81.105" xml:space="preserve"><metadata id="metadata4625"><rdf:RDF><cc:Work rdf:about=""><dc:format>image/svg+xml</dc:format><dc:type rdf:resource="http://purl.org/dc/dcmitype/StillImage"/><dc:title/></cc:Work></rdf:RDF></metadata><defs id="defs4623"/><sodipodi:namedview fit-margin-left="0" fit-margin-top="0" borderlayer="false" inkscape:cy="88.230103" inkscape:cx="261.99393" inkscape:zoom="2.1788789" showgrid="false" guidetolerance="10" gridtolerance="10" objecttolerance="10" borderopacity="1" pagecolor="#e3dbdb" bordercolor="#666666" id="namedview57" fit-margin-bottom="0" fit-margin-right="0" inkscape:current-layer="Layer_1" inkscape:window-maximized="1" inkscape:window-y="-8" inkscape:window-x="-8" inkscape:window-height="1017" inkscape:window-width="1920" inkscape:pageshadow="2" inkscape:pageopacity="0"/><path id="path2" inkscape:connector-curvature="0" d="m 362.437,33.529 13.008,-0.076 27.197,-33.379 h -45.927 l -11.618,47 h 14 z m 6.791,-27.456 h 14.557 l -20.99,25.832 z" style="fill:#f6f6f6"/><polygon id="polygon4" points="309.224,47.073 319.355,6.073 333.706,6.073 318.216,25.025 326.554,47.073 340.554,47.073 332.136,25.142 352.607,0.073 306.629,0.073 306.629,0.124 295.224,47.073 " style="fill:#f6f6f6"/><polygon id="polygon6" points="462.38,47.073 476.38,47.073 481.474,26.613 493.51,47.073 507.51,47.073 494.131,24.086 515.719,0.073 501.719,0.073 482.648,21.553 487.996,0.073 473.996,0.073 " style="fill:#f6f6f6"/><path id="path8" inkscape:connector-curvature="0" d="m 252.629,0.015 v 0.059 h -41.541 l -12.146,47 h 18.635 L 256.478,6.495 Z m -36.22,33.446 7.123,-27.388 h 19.018 c 0.039,0 0.042,0.196 0.042,0.196 z" style="fill:#f6f6f6"/><polygon id="polygon10" points="162.911,14.625 167.178,47.073 186.782,47.073 198.401,0.073 184.401,0.073 175.682,35.804 170.074,0.073 152.476,0.073 140.856,47.073 154.856,47.073 " style="fill:#f6f6f6"/><polygon id="polygon12" points="48.07,47.073 52.561,29.073 65.955,29.073 61.464,47.073 75.464,47.073 87.182,0.073 73.182,0.073 67.949,21.073 54.556,21.073 59.789,0.073 45.789,0.073 34.07,47.073 " style="fill:#f6f6f6"/><polygon id="polygon14" points="17.38,47.073 27.696,5.073 39.31,5.073 40.791,0.073 1.482,0.073 0,5.073 13.696,5.073 3.38,47.073 " style="fill:#f6f6f6"/><polygon id="polygon16" points="453.156,47.073 454.626,41.073 437.401,41.073 445.728,7.073 462.938,7.073 464.613,0.073 433.39,0.073 421.931,47.073 " style="fill:#f6f6f6"/><polygon id="polygon18" points="94.176,46.885 94.611,47.073 128.133,47.073 128.154,46.868 139.865,0.073 125.865,0.073 116.14,39.073 104.136,39.073 113.861,0.073 99.861,0.073 89.889,39.815 " style="fill:#f6f6f6"/><path id="path20" inkscape:connector-curvature="0" d="M 420.788,0.073 H 406.63 V 0 c -4,15.552 -11.461,47.073 -11.461,47.073 h 14.001 z" style="fill:#f6f6f6"/><polygon id="polygon22" points="244.238,30.259 244.84,31.428 267.51,31.418 240.803,45.813 241.341,46.817 264.021,46.863 225.69,69.75 226.456,71.001 286.861,45.61 288.707,38.073 271.355,38.073 291.442,27.219 292.535,22.893 267.947,22.912 298.183,0.073 280.058,0.073 " style="fill:#16BDF9"/><path d="m 303.189,68.407 c 0,0.167 0,0.334 0,0.501 0,0.167 -0.008,0.325 -0.024,0.476 h -9.039 c 0.033,0.351 0.138,0.668 0.313,0.951 0.175,0.284 0.4,0.53 0.676,0.738 0.275,0.209 0.584,0.372 0.927,0.488 0.342,0.117 0.696,0.176 1.063,0.176 0.651,0 1.202,-0.121 1.652,-0.363 0.451,-0.242 0.818,-0.555 1.102,-0.938 l 2.854,1.803 c -0.584,0.851 -1.356,1.506 -2.315,1.965 -0.96,0.459 -2.074,0.688 -3.343,0.688 -0.936,0 -1.819,-0.146 -2.654,-0.438 -0.835,-0.292 -1.564,-0.718 -2.19,-1.277 -0.626,-0.559 -1.119,-1.248 -1.478,-2.065 -0.359,-0.817 -0.538,-1.753 -0.538,-2.805 0,-1.018 0.175,-1.94 0.525,-2.767 0.35,-0.827 0.826,-1.527 1.428,-2.103 0.601,-0.576 1.31,-1.022 2.128,-1.34 0.817,-0.317 1.702,-0.476 2.654,-0.476 0.918,0 1.761,0.154 2.528,0.463 0.767,0.309 1.428,0.756 1.979,1.34 0.551,0.584 0.98,1.293 1.289,2.128 0.309,0.835 0.463,1.787 0.463,2.855 z m -3.78,-1.577 c 0,-0.651 -0.205,-1.211 -0.613,-1.678 -0.409,-0.468 -1.022,-0.701 -1.841,-0.701 -0.4,0 -0.768,0.062 -1.102,0.188 -0.334,0.126 -0.626,0.297 -0.876,0.514 -0.25,0.217 -0.451,0.472 -0.601,0.764 -0.15,0.292 -0.234,0.597 -0.251,0.914 h 5.284 z" id="path4584" inkscape:connector-curvature="0" style="fill:#f6f6f6"/><path d="m 316.836,61.371 c -0.368,-0.467 -0.848,-0.839 -1.44,-1.114 -0.592,-0.275 -1.164,-0.413 -1.715,-0.413 -0.284,0 -0.572,0.025 -0.864,0.075 -0.292,0.051 -0.555,0.146 -0.788,0.288 -0.234,0.143 -0.43,0.325 -0.589,0.551 -0.158,0.226 -0.237,0.514 -0.237,0.864 0,0.3 0.062,0.551 0.188,0.751 0.126,0.2 0.309,0.375 0.551,0.525 0.242,0.15 0.53,0.288 0.864,0.413 0.333,0.126 0.709,0.255 1.126,0.389 0.602,0.2 1.228,0.422 1.878,0.663 0.651,0.242 1.243,0.563 1.778,0.964 0.533,0.4 0.977,0.897 1.327,1.49 0.35,0.593 0.525,1.331 0.525,2.216 0,1.019 -0.188,1.898 -0.563,2.642 -0.376,0.742 -0.881,1.356 -1.515,1.84 -0.635,0.484 -1.36,0.843 -2.179,1.077 -0.817,0.233 -1.661,0.35 -2.528,0.35 -1.269,0 -2.496,-0.221 -3.681,-0.663 -1.186,-0.442 -2.17,-1.072 -2.954,-1.891 l 2.804,-2.854 c 0.434,0.534 1.006,0.98 1.715,1.339 0.71,0.359 1.415,0.538 2.116,0.538 0.316,0 0.626,-0.033 0.926,-0.1 0.301,-0.066 0.563,-0.176 0.789,-0.325 0.226,-0.15 0.404,-0.351 0.538,-0.602 0.134,-0.25 0.2,-0.551 0.2,-0.901 0,-0.333 -0.083,-0.617 -0.25,-0.851 -0.167,-0.234 -0.405,-0.447 -0.714,-0.639 -0.309,-0.192 -0.692,-0.367 -1.151,-0.526 -0.459,-0.158 -0.98,-0.329 -1.564,-0.513 -0.568,-0.184 -1.123,-0.4 -1.665,-0.651 -0.543,-0.25 -1.027,-0.571 -1.452,-0.964 -0.426,-0.392 -0.769,-0.867 -1.027,-1.427 -0.258,-0.56 -0.388,-1.239 -0.388,-2.041 0,-0.984 0.2,-1.828 0.601,-2.528 0.4,-0.701 0.927,-1.277 1.578,-1.728 0.65,-0.451 1.385,-0.78 2.203,-0.989 0.817,-0.209 1.644,-0.313 2.479,-0.313 1.001,0 2.023,0.185 3.067,0.551 1.043,0.368 1.957,0.91 2.741,1.628 z" id="path4586" inkscape:connector-curvature="0" style="fill:#f6f6f6"/><path d="m 337.416,68.207 c 0,0.868 -0.134,1.702 -0.4,2.504 -0.268,0.801 -0.656,1.506 -1.165,2.115 -0.509,0.609 -1.131,1.098 -1.865,1.465 -0.734,0.367 -1.569,0.551 -2.504,0.551 -0.768,0 -1.494,-0.154 -2.178,-0.463 -0.685,-0.309 -1.219,-0.73 -1.603,-1.265 h -0.05 V 80.5 h -4.106 V 62.023 h 3.906 v 1.527 h 0.074 c 0.384,-0.501 0.914,-0.939 1.59,-1.314 0.677,-0.376 1.474,-0.563 2.392,-0.563 0.901,0 1.719,0.175 2.454,0.525 0.734,0.351 1.355,0.826 1.865,1.428 0.509,0.601 0.901,1.298 1.177,2.091 0.276,0.793 0.413,1.622 0.413,2.49 z m -3.982,0 c 0,-0.401 -0.062,-0.793 -0.188,-1.177 -0.126,-0.384 -0.31,-0.722 -0.551,-1.015 -0.242,-0.292 -0.547,-0.529 -0.914,-0.713 -0.367,-0.184 -0.793,-0.275 -1.277,-0.275 -0.467,0 -0.885,0.092 -1.251,0.275 -0.368,0.184 -0.681,0.425 -0.939,0.726 -0.258,0.301 -0.459,0.643 -0.601,1.026 -0.143,0.385 -0.213,0.776 -0.213,1.177 0,0.401 0.07,0.793 0.213,1.177 0.142,0.385 0.342,0.727 0.601,1.027 0.259,0.3 0.571,0.542 0.939,0.726 0.366,0.184 0.784,0.275 1.251,0.275 0.484,0 0.91,-0.092 1.277,-0.275 0.367,-0.183 0.672,-0.426 0.914,-0.726 0.241,-0.301 0.426,-0.647 0.551,-1.039 0.126,-0.392 0.188,-0.788 0.188,-1.189 z" id="path4588" inkscape:connector-curvature="0" style="fill:#f6f6f6"/><path d="m 354.717,68.207 c 0,1.018 -0.184,1.94 -0.551,2.767 -0.367,0.827 -0.868,1.527 -1.502,2.103 -0.635,0.576 -1.369,1.023 -2.203,1.34 -0.835,0.317 -1.729,0.476 -2.68,0.476 -0.935,0 -1.823,-0.158 -2.666,-0.476 -0.844,-0.316 -1.578,-0.764 -2.204,-1.34 -0.626,-0.575 -1.122,-1.276 -1.489,-2.103 -0.367,-0.827 -0.551,-1.749 -0.551,-2.767 0,-1.019 0.184,-1.937 0.551,-2.755 0.367,-0.817 0.863,-1.51 1.489,-2.078 0.626,-0.566 1.36,-1.001 2.204,-1.302 0.843,-0.3 1.731,-0.45 2.666,-0.45 0.951,0 1.845,0.15 2.68,0.45 0.834,0.301 1.568,0.735 2.203,1.302 0.634,0.568 1.135,1.261 1.502,2.078 0.367,0.819 0.551,1.737 0.551,2.755 z m -3.957,0 c 0,-0.401 -0.066,-0.793 -0.2,-1.177 -0.134,-0.384 -0.325,-0.722 -0.576,-1.015 -0.25,-0.292 -0.559,-0.529 -0.926,-0.713 -0.367,-0.184 -0.793,-0.275 -1.277,-0.275 -0.484,0 -0.91,0.092 -1.276,0.275 -0.368,0.184 -0.673,0.421 -0.914,0.713 -0.242,0.293 -0.426,0.631 -0.551,1.015 -0.125,0.384 -0.188,0.775 -0.188,1.177 0,0.4 0.063,0.793 0.188,1.177 0.125,0.384 0.312,0.73 0.563,1.039 0.25,0.309 0.559,0.555 0.926,0.738 0.367,0.183 0.793,0.275 1.277,0.275 0.483,0 0.909,-0.092 1.276,-0.275 0.367,-0.183 0.677,-0.43 0.927,-0.738 0.25,-0.308 0.438,-0.655 0.563,-1.039 0.125,-0.384 0.188,-0.776 0.188,-1.177 z" id="path4590" inkscape:connector-curvature="0" style="fill:#f6f6f6"/><path d="m 373.548,65.077 v 4.775 c 0,0.587 0.112,1.026 0.338,1.319 0.225,0.294 0.63,0.44 1.214,0.44 0.2,0 0.413,-0.017 0.639,-0.051 0.226,-0.033 0.413,-0.083 0.563,-0.15 l 0.05,3.005 c -0.284,0.101 -0.643,0.188 -1.076,0.263 -0.435,0.075 -0.868,0.113 -1.303,0.113 -0.834,0 -1.535,-0.105 -2.103,-0.314 -0.568,-0.209 -1.022,-0.51 -1.365,-0.903 -0.342,-0.394 -0.588,-0.862 -0.738,-1.405 -0.15,-0.544 -0.226,-1.151 -0.226,-1.82 v -5.271 h -2.003 v -3.055 h 1.979 v -3.28 h 4.031 v 3.28 h 2.929 v 3.055 h -2.929 z" id="path4592" inkscape:connector-curvature="0" style="fill:#f6f6f6"/><path d="m 387.242,65.703 c -0.334,-0.317 -0.727,-0.584 -1.177,-0.802 -0.45,-0.217 -0.927,-0.325 -1.427,-0.325 -0.385,0 -0.739,0.075 -1.064,0.226 -0.325,0.151 -0.488,0.409 -0.488,0.776 0,0.351 0.179,0.601 0.538,0.751 0.359,0.15 0.939,0.317 1.74,0.501 0.467,0.1 0.939,0.242 1.415,0.425 0.476,0.185 0.905,0.426 1.289,0.727 0.384,0.301 0.692,0.668 0.927,1.102 0.233,0.435 0.351,0.951 0.351,1.553 0,0.784 -0.159,1.448 -0.476,1.99 -0.317,0.543 -0.73,0.98 -1.24,1.314 -0.509,0.334 -1.08,0.576 -1.715,0.726 -0.635,0.15 -1.269,0.226 -1.902,0.226 -1.019,0 -2.016,-0.162 -2.992,-0.488 -0.977,-0.325 -1.79,-0.805 -2.441,-1.439 l 2.304,-2.429 c 0.367,0.4 0.817,0.734 1.352,1.002 0.534,0.267 1.102,0.4 1.703,0.4 0.333,0 0.663,-0.079 0.988,-0.238 0.326,-0.158 0.488,-0.438 0.488,-0.839 0,-0.384 -0.2,-0.667 -0.601,-0.851 -0.401,-0.184 -1.026,-0.376 -1.878,-0.576 -0.435,-0.101 -0.868,-0.233 -1.302,-0.4 -0.435,-0.167 -0.822,-0.393 -1.164,-0.676 -0.343,-0.284 -0.622,-0.635 -0.839,-1.052 -0.217,-0.417 -0.325,-0.918 -0.325,-1.503 0,-0.751 0.158,-1.39 0.476,-1.915 0.316,-0.525 0.726,-0.955 1.227,-1.289 0.501,-0.334 1.056,-0.58 1.665,-0.739 0.609,-0.158 1.214,-0.237 1.815,-0.237 0.935,0 1.849,0.146 2.741,0.438 0.893,0.293 1.648,0.73 2.267,1.314 z" id="path4594" inkscape:connector-curvature="0" style="fill:#f6f6f6"/><path d="m 415.034,69.333 c 0,0.969 -0.191,1.782 -0.575,2.441 -0.385,0.66 -0.894,1.189 -1.527,1.59 -0.635,0.4 -1.356,0.688 -2.166,0.864 -0.81,0.175 -1.641,0.263 -2.491,0.263 h -7.061 V 56.765 h 7.061 c 0.684,0 1.385,0.071 2.103,0.213 0.718,0.142 1.369,0.384 1.953,0.726 0.584,0.343 1.06,0.806 1.428,1.39 0.366,0.585 0.551,1.327 0.551,2.229 0,0.985 -0.268,1.799 -0.802,2.441 -0.534,0.642 -1.235,1.105 -2.103,1.39 v 0.05 c 0.5,0.084 0.972,0.238 1.414,0.463 0.442,0.226 0.826,0.514 1.152,0.864 0.325,0.351 0.584,0.76 0.775,1.227 0.192,0.466 0.288,0.991 0.288,1.575 z m -4.857,-7.435 c 0,-0.602 -0.229,-1.039 -0.688,-1.314 -0.459,-0.275 -1.139,-0.413 -2.04,-0.413 h -2.104 v 3.655 h 2.304 c 0.801,0 1.423,-0.163 1.865,-0.488 0.442,-0.325 0.663,-0.806 0.663,-1.44 z m 0.576,7.035 c 0,-0.734 -0.275,-1.243 -0.826,-1.527 -0.551,-0.283 -1.285,-0.426 -2.203,-0.426 h -2.379 v 4.057 h 2.403 c 0.334,0 0.681,-0.029 1.039,-0.088 0.359,-0.059 0.685,-0.163 0.977,-0.312 0.292,-0.15 0.53,-0.363 0.714,-0.639 0.184,-0.276 0.275,-0.631 0.275,-1.065 z" id="path4596" inkscape:connector-curvature="0" style="fill:#f6f6f6"/><path d="m 431.509,68.407 c 0,0.167 0,0.334 0,0.501 0,0.167 -0.008,0.325 -0.024,0.476 h -9.039 c 0.033,0.351 0.138,0.668 0.313,0.951 0.175,0.284 0.4,0.53 0.676,0.738 0.275,0.209 0.584,0.372 0.927,0.488 0.342,0.117 0.696,0.176 1.063,0.176 0.651,0 1.202,-0.121 1.652,-0.363 0.451,-0.242 0.818,-0.555 1.102,-0.938 l 2.854,1.803 c -0.584,0.851 -1.356,1.506 -2.315,1.965 -0.96,0.459 -2.074,0.688 -3.343,0.688 -0.936,0 -1.819,-0.146 -2.654,-0.438 -0.835,-0.292 -1.564,-0.718 -2.19,-1.277 -0.626,-0.559 -1.119,-1.248 -1.478,-2.065 -0.359,-0.817 -0.538,-1.753 -0.538,-2.805 0,-1.018 0.175,-1.94 0.525,-2.767 0.35,-0.827 0.826,-1.527 1.428,-2.103 0.601,-0.576 1.31,-1.022 2.128,-1.34 0.817,-0.317 1.702,-0.476 2.654,-0.476 0.918,0 1.761,0.154 2.528,0.463 0.767,0.309 1.428,0.756 1.979,1.34 0.551,0.584 0.98,1.293 1.289,2.128 0.309,0.835 0.463,1.787 0.463,2.855 z m -3.781,-1.577 c 0,-0.651 -0.205,-1.211 -0.613,-1.678 -0.409,-0.468 -1.022,-0.701 -1.841,-0.701 -0.4,0 -0.768,0.062 -1.102,0.188 -0.334,0.126 -0.626,0.297 -0.876,0.514 -0.25,0.217 -0.451,0.472 -0.601,0.764 -0.15,0.292 -0.234,0.597 -0.251,0.914 h 5.284 z" id="path4598" inkscape:connector-curvature="0" style="fill:#f6f6f6"/><path d="m 440.021,65.077 v 4.775 c 0,0.587 0.112,1.026 0.338,1.319 0.225,0.294 0.63,0.44 1.214,0.44 0.2,0 0.413,-0.017 0.639,-0.051 0.226,-0.033 0.413,-0.083 0.563,-0.15 l 0.05,3.005 c -0.284,0.101 -0.643,0.188 -1.076,0.263 -0.435,0.075 -0.868,0.113 -1.303,0.113 -0.834,0 -1.535,-0.105 -2.103,-0.314 -0.568,-0.209 -1.022,-0.51 -1.365,-0.903 -0.342,-0.394 -0.588,-0.862 -0.738,-1.405 -0.15,-0.544 -0.226,-1.151 -0.226,-1.82 v -5.271 h -2.003 v -3.055 h 1.979 v -3.28 h 4.031 v 3.28 h 2.929 v 3.055 h -2.929 z" id="path4600" inkscape:connector-curvature="0" style="fill:#f6f6f6"/><path d="m 450.237,65.077 v 4.775 c 0,0.587 0.112,1.026 0.338,1.319 0.225,0.294 0.63,0.44 1.214,0.44 0.2,0 0.413,-0.017 0.639,-0.051 0.226,-0.033 0.413,-0.083 0.563,-0.15 l 0.05,3.005 c -0.284,0.101 -0.643,0.188 -1.076,0.263 -0.435,0.075 -0.868,0.113 -1.303,0.113 -0.834,0 -1.535,-0.105 -2.103,-0.314 -0.568,-0.209 -1.022,-0.51 -1.365,-0.903 -0.342,-0.394 -0.588,-0.862 -0.738,-1.405 -0.15,-0.544 -0.226,-1.151 -0.226,-1.82 v -5.271 h -2.003 v -3.055 h 1.979 v -3.28 h 4.031 v 3.28 h 2.929 v 3.055 h -2.929 z" id="path4602" inkscape:connector-curvature="0" style="fill:#f6f6f6"/><path d="m 461.053,58.041 c 0,0.317 -0.063,0.614 -0.188,0.89 -0.125,0.276 -0.292,0.513 -0.5,0.713 -0.209,0.2 -0.46,0.359 -0.752,0.476 -0.292,0.117 -0.597,0.176 -0.913,0.176 -0.668,0 -1.228,-0.221 -1.678,-0.664 -0.451,-0.441 -0.677,-0.972 -0.677,-1.59 0,-0.3 0.059,-0.588 0.176,-0.863 0.116,-0.275 0.283,-0.514 0.501,-0.714 0.217,-0.2 0.467,-0.363 0.751,-0.488 0.283,-0.125 0.592,-0.188 0.927,-0.188 0.316,0 0.621,0.059 0.913,0.175 0.292,0.117 0.543,0.275 0.752,0.476 0.208,0.201 0.375,0.438 0.5,0.714 0.125,0.276 0.188,0.571 0.188,0.887 z m -4.407,16.45 V 62.023 h 4.106 v 12.469 h -4.106 z" id="path4604" inkscape:connector-curvature="0" style="fill:#f6f6f6"/><path d="M 473.697,74.491 V 67.68 c 0,-0.351 -0.029,-0.684 -0.088,-1.001 -0.059,-0.317 -0.154,-0.597 -0.288,-0.839 -0.134,-0.242 -0.321,-0.434 -0.563,-0.576 -0.242,-0.142 -0.547,-0.213 -0.914,-0.213 -0.367,0 -0.688,0.071 -0.964,0.213 -0.275,0.143 -0.505,0.338 -0.688,0.589 -0.184,0.25 -0.321,0.538 -0.413,0.863 -0.092,0.325 -0.138,0.664 -0.138,1.015 v 6.76 H 465.51 V 62.023 h 3.98 v 1.728 h 0.051 c 0.15,-0.267 0.346,-0.529 0.588,-0.789 0.242,-0.258 0.526,-0.479 0.852,-0.663 0.326,-0.184 0.68,-0.334 1.064,-0.451 0.384,-0.116 0.792,-0.175 1.227,-0.175 0.834,0 1.544,0.15 2.128,0.45 0.584,0.301 1.056,0.689 1.415,1.165 0.358,0.476 0.617,1.022 0.776,1.64 0.158,0.618 0.237,1.235 0.237,1.853 v 7.712 h -4.131 z" id="path4606" inkscape:connector-curvature="0" style="fill:#f6f6f6"/><path d="m 495.655,73.315 c 0,1.218 -0.175,2.278 -0.525,3.18 -0.35,0.902 -0.844,1.648 -1.478,2.241 -0.635,0.592 -1.406,1.034 -2.316,1.327 -0.909,0.291 -1.915,0.438 -3.017,0.438 -1.102,0 -2.232,-0.167 -3.393,-0.5 -1.16,-0.335 -2.166,-0.818 -3.018,-1.453 l 2.054,-2.929 c 0.601,0.534 1.265,0.93 1.99,1.189 0.727,0.258 1.439,0.388 2.141,0.388 1.202,0 2.091,-0.317 2.667,-0.951 0.575,-0.635 0.863,-1.478 0.863,-2.529 v -0.751 h -0.075 c -0.384,0.501 -0.901,0.901 -1.552,1.202 -0.651,0.3 -1.395,0.45 -2.229,0.45 -0.951,0 -1.795,-0.171 -2.529,-0.513 -0.734,-0.343 -1.355,-0.806 -1.865,-1.39 -0.509,-0.584 -0.897,-1.265 -1.164,-2.041 -0.267,-0.776 -0.4,-1.598 -0.4,-2.466 0,-0.868 0.134,-1.694 0.4,-2.479 0.267,-0.784 0.655,-1.477 1.164,-2.078 0.51,-0.601 1.131,-1.08 1.865,-1.439 0.734,-0.358 1.569,-0.538 2.504,-0.538 0.784,0 1.536,0.159 2.254,0.476 0.717,0.317 1.293,0.81 1.728,1.478 h 0.05 v -1.603 h 3.881 z m -3.906,-5.133 c 0,-0.417 -0.07,-0.817 -0.212,-1.202 -0.143,-0.384 -0.347,-0.722 -0.614,-1.014 -0.267,-0.292 -0.584,-0.521 -0.951,-0.688 -0.367,-0.167 -0.784,-0.25 -1.252,-0.25 -0.468,0 -0.881,0.083 -1.239,0.25 -0.359,0.167 -0.663,0.393 -0.914,0.676 -0.25,0.284 -0.442,0.618 -0.575,1.002 -0.134,0.384 -0.201,0.793 -0.201,1.227 0,0.417 0.067,0.818 0.201,1.202 0.133,0.384 0.325,0.722 0.575,1.014 0.251,0.292 0.555,0.525 0.914,0.701 0.358,0.175 0.771,0.263 1.239,0.263 0.468,0 0.889,-0.088 1.265,-0.263 0.376,-0.176 0.692,-0.404 0.951,-0.688 0.259,-0.284 0.459,-0.617 0.602,-1.002 0.14,-0.385 0.211,-0.794 0.211,-1.228 z" id="path4608" inkscape:connector-curvature="0" style="fill:#f6f6f6"/><path d="m 366.172,61.675 c -0.752,0.006 -1.416,0.206 -1.99,0.603 -0.585,0.403 -1.035,0.924 -1.353,1.562 h -0.05 v -1.803 h -3.956 v 12.454 h 4.106 v -6.393 c 0,-0.249 0.05,-0.541 0.149,-0.873 0.101,-0.333 0.264,-0.642 0.488,-0.925 0.226,-0.282 0.526,-0.523 0.901,-0.724 0.376,-0.199 0.839,-0.3 1.39,-0.3 0.102,0 0.208,0.009 0.313,0.016 v -3.617 z" id="path4610" inkscape:connector-curvature="0" style="fill:#f6f6f6"/></svg>
